<svg width="24" height="24" viewBox="0 0 24 24" fill="none" xmlns="http://www.w3.org/2000/svg">
<rect width="24" height="24" fill="none"/>
<g clip-path="url(#clip0_1334_28)">
<path fill-rule="evenodd" clip-rule="evenodd" d="M22.5142 3.24944C23.1411 3.791 23.2103 4.73822 22.6687 5.36512L10.3302 19.6481L10.3109 19.6688C9.78757 20.2303 9.06895 20.5585 8.31789 20.6091C7.58512 20.6585 6.84938 20.4421 6.26205 19.9865L1.60013 16.6857C0.924021 16.207 0.764 15.2708 1.24271 14.5947C1.72143 13.9186 2.6576 13.7585 3.33371 14.2373L8.06513 17.5873L8.09813 17.6139C8.09839 17.614 8.09778 17.6138 8.09813 17.6139C8.10207 17.6151 8.109 17.6164 8.11605 17.6159C8.11832 17.6158 8.12029 17.6155 8.12195 17.6152L20.3985 3.40397C20.94 2.77707 21.8873 2.70788 22.5142 3.24944Z" fill="#18E806"/>
</g>
<defs>
<clipPath id="clip0_1334_28">
<rect width="22" height="18" fill="white" transform="translate(1 3)"/>
</clipPath>
</defs>
</svg>
