<svg width="24" height="24" viewBox="0 0 24 24" fill="none" xmlns="http://www.w3.org/2000/svg">
<g clip-path="url(#clip0_1328_31)">
<g clip-path="url(#clip1_1328_31)">
<path d="M8.064 5.27998H6.72L4.8 12.96H5.76L6.24 11.136H8.448L8.928 12.96H9.888L7.968 5.27998H8.064ZM6.336 10.368L7.296 6.14398L8.256 10.368H6.336ZM10.752 12.96V5.27998H11.712V12.96H10.752ZM10.944 13.92H3.84V4.31998H13.44V8.92798C14.592 8.15998 15.936 7.96798 17.28 8.15998V6.23998H15.36V4.31998C15.36 3.81076 15.1577 3.32241 14.7976 2.96234C14.4376 2.60227 13.9492 2.39998 13.44 2.39998H11.52V0.47998H9.6V2.39998H7.68V0.47998H5.76V2.39998H3.84C3.33078 2.39998 2.84242 2.60227 2.48235 2.96234C2.12229 3.32241 1.92 3.81076 1.92 4.31998V6.23998H0V8.15998H1.92V10.08H0V12H1.92V13.92C1.92 14.4292 2.12229 14.9176 2.48235 15.2776C2.84242 15.6377 3.33078 15.84 3.84 15.84H5.76V17.76H7.68V15.84H9.6V17.76H11.52V15.84C11.232 15.264 11.04 14.592 10.944 13.92ZM12.96 13.44C12.96 12.5489 13.314 11.6942 13.9441 11.0641C14.5742 10.434 15.4289 10.08 16.32 10.08C17.2111 10.08 18.0658 10.434 18.6959 11.0641C19.326 11.6942 19.68 12.5489 19.68 13.44C19.68 14.3311 19.326 15.1857 18.6959 15.8159C18.0658 16.446 17.2111 16.8 16.32 16.8C15.4289 16.8 14.5742 16.446 13.9441 15.8159C13.314 15.1857 12.96 14.3311 12.96 13.44ZM16.32 18.72C14.112 18.72 9.6 19.872 9.6 22.08V23.52H23.04V22.08C23.04 19.872 18.528 18.72 16.32 18.72Z" fill="#CED4DA"/>
</g>
</g>
<defs>
<clipPath id="clip0_1328_31">
<rect width="24" height="24" fill="white"/>
</clipPath>
<clipPath id="clip1_1328_31">
<rect width="23.04" height="24" fill="white"/>
</clipPath>
</defs>
</svg>
