<svg xmlns="http://www.w3.org/2000/svg" width="30" height="30" fill="none"><path fill="#ADB5BD" d="M15 16.7c1.6 0 3-.6 4.1-1.7a5.6 5.6 0 0 0 1.7-4.2c0-1.6-.5-3-1.7-4A5.6 5.6 0 0 0 15 5c-1.6 0-3 .6-4.1 1.7a5.6 5.6 0 0 0-1.7 4.1c0 1.6.5 3 1.7 4.2a5.6 5.6 0 0 0 4.1 1.7ZM3.3 30c-.9 0-1.7-.3-2.3-1-.7-.6-1-1.4-1-2.3V3.3C0 2.4.3 1.6 1 1c.6-.7 1.4-1 2.3-1h23.4c.9 0 1.7.3 2.3 1 .7.6 1 1.4 1 2.3v23.4c0 .9-.3 1.7-1 2.3-.6.7-1.4 1-2.3 1H3.3Zm0-3.3h23.4v-2a16.8 16.8 0 0 0-18.1-3.4c-2 .8-3.8 2-5.3 3.4v2Z"></path></svg>