<svg xmlns="http://www.w3.org/2000/svg" width="32" height="30" fill="none"><path fill="#ADB5BD" d="M3.3 30c-.9 0-1.7-.3-2.3-1-.7-.6-1-1.4-1-2.3V3.3C0 2.4.3 1.6 1 1c.6-.7 1.4-1 2.3-1h23.4c.9 0 1.7.3 2.3 1 .7.6 1 1.4 1 2.3H16.7c-2 0-3.6.7-4.8 1.9A6.5 6.5 0 0 0 10 10v10c0 2 .6 3.6 1.9 4.8a6.5 6.5 0 0 0 4.8 1.9H30c0 .9-.3 1.7-1 2.3-.6.7-1.4 1-2.3 1H3.3Zm13.4-6.7c-1 0-1.7-.3-2.4-1-.6-.6-1-1.4-1-2.3V10c0-1 .4-1.7 1-2.4.7-.6 1.5-1 2.4-1h11.6c1 0 1.7.4 2.4 1 .6.7 1 1.5 1 2.4v10c0 1-.4 1.7-1 2.4-.7.6-1.4 1-2.4 1H16.7Zm5-5.8a2.4 2.4 0 0 0 2.5-2.5 2.4 2.4 0 0 0-2.5-2.5 2.4 2.4 0 0 0-2.5 2.5 2.4 2.4 0 0 0 2.5 2.5Z"></path></svg>