<svg xmlns="http://www.w3.org/2000/svg" width="30" height="30" fill="none"><path fill="#ADB5BD" d="M15 13.3a26 26 0 0 0 10.6-2c3-1.2 4.4-2.8 4.4-4.6 0-1.9-1.5-3.4-4.4-4.7A26 26 0 0 0 15 0 26 26 0 0 0 4.4 2C1.4 3.3 0 4.8 0 6.7c0 1.8 1.5 3.4 4.4 4.7 2.9 1.3 6.4 2 10.6 2Zm0 4.2a32.2 32.2 0 0 0 9.2-1.5c1.6-.5 3-1.2 4-2 1.2-1 1.8-2 1.8-3.2V15c0 1.2-.6 2.3-1.7 3.1-1.1.9-2.5 1.5-4 2a27.5 27.5 0 0 1-9.3 1.6 32.1 32.1 0 0 1-9.2-1.5c-1.6-.6-3-1.2-4-2-1.2-1-1.8-2-1.8-3.2v-4.2c0 1.3.6 2.3 1.7 3.1 1.1.9 2.5 1.6 4 2.1a27.5 27.5 0 0 0 9.3 1.5Zm0 8.3a32.2 32.2 0 0 0 9.2-1.5c1.6-.5 3-1.2 4-2 1.2-.9 1.8-2 1.8-3.1v4.1c0 1.3-.6 2.3-1.7 3.1-1.1.9-2.5 1.6-4 2.1A27.5 27.5 0 0 1 15 30a32.1 32.1 0 0 1-9.2-1.5c-1.6-.5-3-1.2-4-2-1.2-1-1.8-2-1.8-3.2v-4.1c0 1.2.6 2.2 1.7 3 1.1 1 2.5 1.6 4 2.1a27.5 27.5 0 0 0 9.3 1.5Z"></path></svg>