<svg xmlns="http://www.w3.org/2000/svg" width="30" height="30" fill="none"><path fill="#ADB5BD" d="M18.3 10c-.4 0-.8-.2-1.2-.5-.3-.3-.4-.7-.4-1.2V1.7c0-.5.1-.9.4-1.2.4-.3.8-.5 1.2-.5h10c.5 0 .9.2 1.2.5.3.3.5.7.5 1.2v6.6c0 .5-.2.9-.5 1.2-.3.3-.7.5-1.2.5h-10ZM1.7 16.7c-.5 0-.9-.2-1.2-.5-.3-.3-.5-.7-.5-1.2V1.7C0 1.2.2.8.5.5.8.2 1.2 0 1.7 0h10c.4 0 .8.2 1.2.5.3.3.4.7.4 1.2V15c0 .5-.1.9-.4 1.2-.4.3-.8.5-1.2.5h-10ZM18.3 30c-.4 0-.8-.2-1.2-.5-.3-.3-.4-.7-.4-1.2V15c0-.5.1-.9.4-1.2.4-.3.8-.5 1.2-.5h10c.5 0 .9.2 1.2.5.3.3.5.7.5 1.2v13.3c0 .5-.2.9-.5 1.2-.3.3-.7.5-1.2.5h-10ZM1.7 30c-.5 0-.9-.2-1.2-.5-.3-.3-.5-.7-.5-1.2v-6.6c0-.5.2-.9.5-1.2.3-.3.7-.5 1.2-.5h10c.4 0 .8.2 1.2.5.3.3.4.7.4 1.2v6.6c0 .5-.1.9-.4 1.2-.4.3-.8.5-1.2.5h-10Z"></path></svg>