<svg xmlns="http://www.w3.org/2000/svg" width="40" height="40" fill="none"><path fill="url(#a)" d="M14 18.7c-1.3 0-2.4-.5-3.3-1.4-1-1-1.4-2-1.4-3.3 0-1.3.5-2.4 1.4-3.3 1-1 2-1.4 3.3-1.4 1.3 0 2.4.5 3.3 1.4 1 1 1.4 2 1.4 3.3 0 1.3-.5 2.4-1.4 3.3-1 1-2 1.4-3.3 1.4Zm0-2.7c.6 0 1-.2 1.4-.6.4-.4.6-.8.6-1.4 0-.6-.2-1-.6-1.4A2 2 0 0 0 14 12a2 2 0 0 0-1.4.6A2 2 0 0 0 12 14c0 .6.2 1 .6 1.4.4.4.8.6 1.4.6Zm12 14.7c-1.3 0-2.4-.5-3.3-1.4-1-1-1.4-2-1.4-3.3 0-1.3.5-2.4 1.4-3.3 1-1 2-1.4 3.3-1.4 1.3 0 2.4.5 3.3 1.4 1 1 1.4 2 1.4 3.3 0 1.3-.5 2.4-1.4 3.3-1 1-2 1.4-3.3 1.4Zm0-2.7c.6 0 1-.2 1.4-.6.4-.4.6-.8.6-1.4 0-.6-.2-1-.6-1.4A2 2 0 0 0 26 24a2 2 0 0 0-1.4.6A2 2 0 0 0 24 26c0 .6.2 1 .6 1.4.4.4.8.6 1.4.6Zm-14.8 2.7-1.9-1.9L28.8 9.3l1.9 1.9-19.5 19.5Z"></path><defs><linearGradient id="a" x1="9.6" x2="30.7" y1="21.6" y2="21.6" gradientUnits="userSpaceOnUse"><stop stop-color="#684FDD"></stop><stop offset="1" stop-color="#2F92AC"></stop></linearGradient></defs></svg>