<svg  aria-hidden="true" viewBox="0 0 32 32" xmlns="http://www.w3.org/2000/svg"><path fill="rgb(199, 223, 247)" d="M2 5h2v5H2zm0 17h2v5H2v-5Zm2 7a2 2 0 0 1-2-2h7v2H4Zm19 0v-2h7a2 2 0 0 1-2 2h-5Zm0-24V3h5a2 2 0 0 1 2 2h-7ZM2 5c0-1.1.9-2 2-2h5v2H2Zm26 0h2v5h-2zm0 17h2v5h-2v-5Zm-16.5-4H13l1 1.2.5.6 1.5 2h-1.4l-1-1.3-.4-.5-1.6-2Zm4.8-1.7c0 1-.2 1.9-.6 2.6a4 4 0 0 1-1.5 1.6c-.7.4-1.4.6-2.2.6a4 4 0 0 1-3.7-2.3c-.4-.7-.6-1.5-.6-2.5s.2-1.9.6-2.6a4 4 0 0 1 3.7-2.3 4 4 0 0 1 3.7 2.3c.4.7.6 1.6.6 2.6Zm-1.5 0c0-.8 0-1.4-.3-2a4 4 0 0 0-1-1.2c-.5-.2-1-.4-1.5-.4a2.6 2.6 0 0 0-2.5 1.6 6 6 0 0 0-.3 2c0 .7 0 1.4.3 2l1 1.1c.5.3 1 .4 1.5.4s1-.1 1.4-.4c.5-.3.8-.7 1-1.2a4 4 0 0 0 .4-2ZM18 21v-9.5h3.4a4 4 0 0 1 1.8.4c.5.3.9.6 1.1 1 .3.5.4 1 .4 1.6 0 .6-.1 1.1-.4 1.5a2 2 0 0 1-1 1 4 4 0 0 1-1.9.4h-2.6v-1.2h2.5c.4 0 .8 0 1-.2.4-.1.6-.3.7-.6.2-.2.2-.5.2-.9 0-.3 0-.7-.2-1a1 1 0 0 0-.6-.5c-.3-.2-.7-.2-1.2-.2h-1.7V21H18Zm4.7-4.3L25 21h-1.6l-2.3-4.3h1.6Z"></path></svg>