<svg width="24" height="24" viewBox="0 0 24 24" fill="none" xmlns="http://www.w3.org/2000/svg">
<path d="M19.2995 6.69996L19.6995 5.29997C19.7791 5.03475 19.9608 4.812 20.2046 4.68073C20.4483 4.54945 20.7343 4.5204 20.9995 4.59996C21.2647 4.67953 21.4875 4.86119 21.6188 5.10499C21.75 5.34879 21.7791 5.63475 21.6995 5.89997L20.4995 9.69996C20.4656 9.83468 20.4041 9.96086 20.3187 10.0705C20.2334 10.1801 20.1261 10.2707 20.0038 10.3365C19.8815 10.4024 19.7468 10.442 19.6084 10.453C19.4699 10.4639 19.3306 10.4458 19.1995 10.4L15.3995 9.19996C15.2642 9.16983 15.1367 9.11189 15.0249 9.02982C14.9132 8.94776 14.8198 8.84336 14.7506 8.72326C14.6813 8.60316 14.6378 8.46998 14.6228 8.33217C14.6078 8.19436 14.6216 8.05494 14.6634 7.92275C14.7051 7.79057 14.7739 7.6685 14.8653 7.56431C14.9567 7.46012 15.0688 7.37607 15.1945 7.31751C15.3201 7.25894 15.4566 7.22714 15.5952 7.22412C15.7337 7.2211 15.8715 7.24693 15.9995 7.29996L17.6995 7.79996C16.9541 6.68368 15.9191 5.79116 14.7053 5.21799C13.4916 4.64482 12.1448 4.41258 10.8091 4.54614C9.47351 4.67971 8.19937 5.17404 7.12314 5.97621C6.04691 6.77838 5.20913 7.85817 4.69953 9.09997L4.39953 9.69996C4.38297 9.85254 4.33152 9.99926 4.24916 10.1288C4.1668 10.2583 4.05573 10.3671 3.92456 10.4468C3.7934 10.5264 3.64565 10.5749 3.49276 10.5883C3.33988 10.6017 3.18595 10.5797 3.04291 10.5241C2.89988 10.4685 2.77156 10.3807 2.6679 10.2675C2.56425 10.1543 2.48803 10.0188 2.44516 9.87144C2.40229 9.72407 2.39392 9.56882 2.42069 9.41769C2.44746 9.26657 2.50865 9.12364 2.59953 8.99996L2.79953 8.29996C3.45361 6.72895 4.52189 5.36496 5.89043 4.3535C7.25896 3.34205 8.8764 2.72108 10.5702 2.55683C12.264 2.39258 13.9706 2.69122 15.508 3.42089C17.0453 4.15056 18.3558 5.28389 19.2995 6.69996ZM3.79953 17.3L3.49953 18.6C3.4667 18.7313 3.40832 18.8549 3.32774 18.9636C3.24715 19.0724 3.14593 19.1642 3.02986 19.2338C2.91378 19.3035 2.78513 19.3496 2.65124 19.3695C2.51735 19.3894 2.38085 19.3828 2.24953 19.35C2.1182 19.3171 1.99464 19.2588 1.88587 19.1782C1.77711 19.0976 1.68529 18.9964 1.61564 18.8803C1.546 18.7642 1.4999 18.6356 1.47998 18.5017C1.46005 18.3678 1.4667 18.2313 1.49953 18.1L2.49953 14.3C2.52136 14.1563 2.57423 14.0192 2.65446 13.8981C2.73468 13.7769 2.84034 13.6747 2.96407 13.5986C3.0878 13.5225 3.22664 13.4742 3.37092 13.4572C3.5152 13.4401 3.66146 13.4547 3.79953 13.5L7.59953 14.5C7.86474 14.5663 8.09276 14.7352 8.23341 14.9696C8.37406 15.2041 8.41583 15.4847 8.34953 15.75C8.28322 16.0152 8.11428 16.2432 7.87986 16.3838C7.64544 16.5245 7.36474 16.5663 7.09953 16.5L5.29953 16C6.06881 17.1584 7.14891 18.0766 8.41604 18.6493C9.68317 19.2221 11.086 19.4262 12.4638 19.2383C13.8417 19.0504 15.1386 18.4781 16.2062 17.587C17.2737 16.6959 18.0685 15.522 18.4995 14.2C18.5791 13.9347 18.7608 13.712 19.0046 13.5807C19.2484 13.4495 19.5343 13.4204 19.7995 13.5C20.0647 13.5795 20.2875 13.7612 20.4188 14.005C20.55 14.2488 20.5791 14.5347 20.4995 14.8C19.9686 16.4772 18.9777 17.9718 17.6394 19.1138C16.3012 20.2558 14.6693 20.9993 12.9294 21.2597C11.1895 21.5202 9.41149 21.2872 7.79749 20.5871C6.18348 19.8871 4.79831 18.7482 3.79953 17.3Z" fill="#9FA6AD"/>
</svg>
