<svg xmlns="http://www.w3.org/2000/svg" width="40" height="40" fill="none"><path fill="url(#a)" d="M24.9 14c0-.1-.1-.3-.3-.3H23l-.2.2-2.6 5.3H20l-2.7-5.3a.3.3 0 0 0-.2-.2h-1.9c0 .1-.1.3 0 .4l3.2 6h-1.8c-.1 0-.2.1-.2.3v.8c0 .1 0 .3.2.3H19v1.2h-2.4c-.1 0-.2 0-.2.2v.9c0 .1 0 .2.2.2H19v2c0 .1 0 .3.2.3h1.6l.2-.3v-2h2.4c.2 0 .3-.1.3-.2v-.9c0-.1-.1-.2-.3-.2H21v-1.3h2.4c.2 0 .3 0 .3-.2v-.8c0-.2-.1-.3-.3-.3h-1.8l3.3-6V14Zm-16 5.8a11 11 0 0 1 19.8-6.6L27 14.4a.3.3 0 0 0 .1.4l4.9 1.2c.2 0 .3 0 .3-.2v-5c0-.3-.2-.4-.4-.3l-1.5 1.2a13.4 13.4 0 0 0-24 8.1.3.3 0 0 0 .3.2h1.9l.2-.2Zm24.3.2h-1.9l-.2.2a11 11 0 0 1-19.8 6.6l1.6-1.2a.3.3 0 0 0-.1-.4L7.9 24c-.2 0-.3 0-.3.2v5c0 .3.2.4.4.3l1.5-1.2a13.4 13.4 0 0 0 23.9-8.2.2.2 0 0 0-.2-.1Z"></path><defs><linearGradient id="a" x1="6.9" x2="33.4" y1="22" y2="22" gradientUnits="userSpaceOnUse"><stop stop-color="#684FDD"></stop><stop offset="1" stop-color="#2F92AC"></stop></linearGradient></defs></svg>